%FSLAX23Y23*%
%MOIN*%
G04 EasyPC Gerber Version 18.0.1 Build 3581 *
%ADD108C,0.00100*%
%ADD12C,0.00500*%
%ADD10C,0.00800*%
%ADD81C,0.01575*%
X0Y0D02*
D02*
D10*
X580Y486D02*
G75*
G03X680Y386I100D01*
G01*
Y486*
X580*
G36*
G75*
G03X680Y386I100*
G01*
Y486*
X580*
G37*
Y1511D02*
G75*
G03X680Y1411I100D01*
G01*
Y1511*
X580*
G36*
G75*
G03X680Y1411I100*
G01*
Y1511*
X580*
G37*
X679Y1111D02*
X641D01*
Y911*
X679*
Y1111*
X680Y586D02*
G75*
G03Y386J-100D01*
G01*
G75*
G03Y586J100*
G01*
Y1611D02*
G75*
G03Y1411J-100D01*
G01*
G75*
G03Y1611J100*
G01*
X741Y694D02*
X891D01*
Y834*
X741*
Y695*
X780Y486D02*
G75*
G03X680Y586I-100D01*
G01*
Y486*
X780*
G36*
G75*
G03X680Y586I-100*
G01*
Y486*
X780*
G37*
Y1511D02*
G75*
G03X680Y1611I-100D01*
G01*
Y1511*
X780*
G36*
G75*
G03X680Y1611I-100*
G01*
Y1511*
X780*
G37*
X841Y861D02*
Y1161D01*
X641*
Y861*
X841*
X891Y624D02*
X1051D01*
Y694*
X891*
Y624*
X916Y349D02*
X1076D01*
Y419*
X916*
Y349*
Y484D02*
X1036D01*
Y554*
X916*
Y484*
Y764D02*
X1036D01*
Y834*
X916*
Y764*
Y844D02*
X1036D01*
Y914*
X916*
Y844*
Y1324D02*
Y1164D01*
X986*
Y1324*
X916*
X986Y1351D02*
Y1511D01*
X916*
Y1351*
X986*
X989Y979D02*
Y1134D01*
X914*
Y979*
X989*
X1076Y669D02*
X1426D01*
Y794*
G75*
G02Y869I0J38*
G01*
Y994*
X1076*
Y669*
Y1044D02*
X1426D01*
Y1169*
G75*
G02Y1244I0J38*
G01*
Y1369*
X1076*
Y1044*
X1091Y349D02*
X1251D01*
Y419*
X1091*
Y349*
X1131Y449D02*
X1431D01*
Y599*
X1131*
Y449*
X1186Y1439D02*
Y1599D01*
X1116*
Y1439*
X1186*
X1261D02*
Y1599D01*
X1191*
Y1439*
X1261*
X1271Y349D02*
X1431D01*
Y419*
X1271*
Y349*
Y596D02*
X1431D01*
Y666*
X1271*
Y596*
X1331Y599D02*
Y449D01*
X1386Y1439D02*
Y1599D01*
X1316*
Y1439*
X1386*
X1416Y1599D02*
Y1439D01*
X1486*
Y1599*
X1416*
X1469Y1054D02*
Y894D01*
X1539*
Y1054*
X1469*
Y1269D02*
Y1109D01*
X1539*
Y1269*
X1469*
X1604Y486D02*
G75*
G03X1704Y386I100D01*
G01*
Y486*
X1604*
G36*
G75*
G03X1704Y386I100*
G01*
Y486*
X1604*
G37*
Y1511D02*
G75*
G03X1704Y1411I100D01*
G01*
Y1511*
X1604*
G36*
G75*
G03X1704Y1411I100*
G01*
Y1511*
X1604*
G37*
X1704Y586D02*
G75*
G03Y386J-100D01*
G01*
G75*
G03Y586J100*
G01*
Y1611D02*
G75*
G03Y1411J-100D01*
G01*
G75*
G03Y1611J100*
G01*
X1804Y486D02*
G75*
G03X1704Y586I-100D01*
G01*
Y486*
X1804*
G36*
G75*
G03X1704Y586I-100*
G01*
Y486*
X1804*
G37*
Y1511D02*
G75*
G03X1704Y1611I-100D01*
G01*
Y1511*
X1804*
G36*
G75*
G03X1704Y1611I-100*
G01*
Y1511*
X1804*
G37*
X2341Y299D02*
Y1699D01*
X491*
Y299*
X2341*
D02*
D12*
X565Y799D02*
X552D01*
X546Y802*
X543Y805*
X540Y811*
Y818*
X543Y824*
X546Y827*
X552Y830*
X565*
X571Y827*
X574Y824*
X577Y818*
Y811*
X574Y805*
X571Y802*
X565Y799*
X568Y821D02*
X577Y830D01*
Y855D02*
Y868D01*
Y861D02*
X540D01*
X546Y855*
X679Y1196D02*
Y1233D01*
X701*
X707Y1230*
X710Y1224*
X707Y1218*
X701Y1215*
X679*
X729Y1233D02*
Y1196D01*
X760*
X785D02*
X798D01*
X791D02*
Y1233D01*
X785Y1227*
X796Y638D02*
Y676D01*
X818*
X825Y673*
X828Y666*
X825Y660*
X818Y657*
X796*
X818D02*
X828Y638D01*
X871D02*
X846D01*
X868Y660*
X871Y666*
X868Y673*
X862Y676*
X853*
X846Y673*
X914Y930D02*
X917Y926D01*
X923Y923*
X930Y926*
X933Y930*
Y961*
X939*
X933D02*
X920D01*
X964Y923D02*
Y961D01*
X986*
X992Y958*
X995Y951*
X992Y945*
X986Y942*
X964*
X1020Y923D02*
X1033D01*
X1026D02*
Y961D01*
X1020Y955*
X905Y1206D02*
X867D01*
Y1228*
X870Y1235*
X876Y1238*
X883Y1235*
X886Y1228*
Y1206*
Y1228D02*
X905Y1238D01*
Y1263D02*
Y1275D01*
Y1269D02*
X867D01*
X873Y1263*
X916Y570D02*
X920Y566D01*
X926Y563*
X932Y566*
X935Y570*
Y601*
X941*
X935D02*
X923D01*
X966Y563D02*
Y601D01*
X988*
X995Y598*
X998Y591*
X995Y585*
X988Y582*
X966*
X1020Y566D02*
X1026Y563D01*
X1032*
X1038Y566*
X1041Y573*
X1038Y579*
X1032Y582*
X1026*
X1032D02*
X1038Y585D01*
X1041Y591*
X1038Y598*
X1032Y601*
X1026*
X1020Y598*
X916Y725D02*
X920Y721D01*
X926Y718*
X932Y721*
X935Y725*
Y756*
X941*
X935D02*
X923D01*
X966Y718D02*
Y756D01*
X988*
X995Y753*
X998Y746*
X995Y740*
X988Y737*
X966*
X1041Y718D02*
X1016D01*
X1038Y740*
X1041Y746*
X1038Y753*
X1032Y756*
X1023*
X1016Y753*
X926Y433D02*
Y471D01*
X948*
X955Y468*
X958Y461*
X955Y455*
X948Y452*
X926*
X948D02*
X958Y433D01*
X986D02*
X992Y436D01*
X998Y443*
X1001Y452*
Y461*
X998Y468*
X992Y471*
X986*
X980Y468*
X976Y461*
X980Y455*
X986Y452*
X992*
X998Y455*
X1001Y461*
X961Y1563D02*
X964Y1560D01*
X967Y1553*
Y1544*
X964Y1538*
X961Y1535*
X955Y1531*
X942*
X936Y1535*
X933Y1538*
X930Y1544*
Y1553*
X933Y1560*
X936Y1563*
X967Y1588D02*
Y1600D01*
Y1594D02*
X930D01*
X936Y1588*
X1036Y433D02*
Y471D01*
X1058*
X1065Y468*
X1068Y461*
X1065Y455*
X1058Y452*
X1036*
X1058D02*
X1068Y433D01*
X1096Y452D02*
X1102D01*
X1108Y455*
X1111Y461*
X1108Y468*
X1102Y471*
X1096*
X1090Y468*
X1086Y461*
X1090Y455*
X1096Y452*
X1090Y449*
X1086Y443*
X1090Y436*
X1096Y433*
X1102*
X1108Y436*
X1111Y443*
X1108Y449*
X1102Y452*
X1005Y981D02*
X1042D01*
Y1013*
Y1031D02*
X1005D01*
Y1063*
X1023Y1056D02*
Y1031D01*
X1042D02*
Y1063D01*
Y1081D02*
X1005D01*
Y1100*
X1008Y1106*
X1011Y1110*
X1017Y1113*
X1030*
X1036Y1110*
X1039Y1106*
X1042Y1100*
Y1081*
Y1138D02*
Y1150D01*
Y1144D02*
X1005D01*
X1011Y1138*
X1089Y1391D02*
Y1428D01*
X1111*
X1117Y1425*
X1120Y1419*
X1117Y1413*
X1111Y1410*
X1089*
X1111D02*
X1120Y1391D01*
X1142Y1394D02*
X1148Y1391D01*
X1155*
X1161Y1394*
X1164Y1400*
X1161Y1406*
X1155Y1410*
X1148*
X1155D02*
X1161Y1413D01*
X1164Y1419*
X1161Y1425*
X1155Y1428*
X1148*
X1142Y1425*
X1201Y1391D02*
Y1428D01*
X1223*
X1230Y1425*
X1233Y1419*
X1230Y1413*
X1223Y1410*
X1201*
X1223D02*
X1233Y1391D01*
X1267D02*
Y1428D01*
X1251Y1403*
X1276*
X1214Y853D02*
Y825D01*
X1217Y819*
X1223Y816*
X1236*
X1242Y819*
X1245Y825*
Y853*
X1289Y816D02*
X1264D01*
X1286Y838*
X1289Y844*
X1286Y850*
X1280Y853*
X1270*
X1264Y850*
X1214Y1228D02*
Y1200D01*
X1217Y1194*
X1223Y1191*
X1236*
X1242Y1194*
X1245Y1200*
Y1228*
X1270Y1191D02*
X1283D01*
X1276D02*
Y1228D01*
X1270Y1222*
X1314Y1391D02*
Y1428D01*
X1336*
X1342Y1425*
X1345Y1419*
X1342Y1413*
X1336Y1410*
X1314*
X1336D02*
X1345Y1391D01*
X1364Y1394D02*
X1370Y1391D01*
X1380*
X1386Y1394*
X1389Y1400*
Y1403*
X1386Y1410*
X1380Y1413*
X1364*
Y1428*
X1389*
X1420Y1622D02*
X1417Y1619D01*
X1411Y1616*
X1401*
X1395Y1619*
X1392Y1622*
X1389Y1628*
Y1641*
X1392Y1647*
X1395Y1650*
X1401Y1653*
X1411*
X1417Y1650*
X1420Y1647*
X1464Y1616D02*
X1439D01*
X1461Y1638*
X1464Y1644*
X1461Y1650*
X1455Y1653*
X1445*
X1439Y1650*
X1446Y363D02*
Y401D01*
X1468*
X1475Y398*
X1478Y391*
X1475Y385*
X1468Y382*
X1446*
X1468D02*
X1478Y363D01*
X1496D02*
X1521Y401D01*
X1496*
X1483Y622D02*
X1480Y619D01*
X1473Y616*
X1464*
X1458Y619*
X1455Y622*
X1451Y628*
Y641*
X1455Y647*
X1458Y650*
X1464Y653*
X1473*
X1480Y650*
X1483Y647*
X1505Y619D02*
X1511Y616D01*
X1517*
X1523Y619*
X1526Y625*
X1523Y631*
X1517Y635*
X1511*
X1517D02*
X1523Y638D01*
X1526Y644*
X1523Y650*
X1517Y653*
X1511*
X1505Y650*
X1447Y474D02*
Y505D01*
X1485Y474*
Y505*
Y524D02*
X1447D01*
Y543*
X1450Y549*
X1453Y552*
X1460Y555*
X1472*
X1478Y552*
X1481Y549*
X1485Y543*
Y524*
Y580D02*
Y593D01*
Y586D02*
X1447D01*
X1453Y580*
X1588Y968D02*
X1591Y965D01*
X1595Y958*
Y949*
X1591Y943*
X1588Y940*
X1582Y936*
X1570*
X1563Y940*
X1560Y943*
X1557Y949*
Y958*
X1560Y965*
X1563Y968*
X1595Y1002D02*
X1557D01*
X1582Y986*
Y1011*
X1595Y1139D02*
X1557D01*
Y1161*
X1560Y1167*
X1566Y1170*
X1573Y1167*
X1576Y1161*
Y1139*
Y1161D02*
X1595Y1170D01*
X1585Y1189D02*
X1579Y1192D01*
X1576Y1198*
Y1205*
X1579Y1211*
X1585Y1214*
X1591Y1211*
X1595Y1205*
Y1198*
X1591Y1192*
X1585Y1189*
X1576*
X1566Y1192*
X1560Y1198*
X1557Y1205*
D02*
D81*
X984Y1144D02*
X919D01*
D02*
D108*
X680Y674D02*
G75*
G03Y299J-188D01*
G01*
G75*
G03Y674J188*
G01*
Y1699D02*
G75*
G03Y1324J-188D01*
G01*
G75*
G03Y1699J188*
G01*
X1704Y674D02*
G75*
G03Y299J-188D01*
G01*
G75*
G03Y674J188*
G01*
Y1699D02*
G75*
G03Y1324J-188D01*
G01*
G75*
G03Y1699J188*
G01*
X0Y0D02*
M02*
