%FSLAX23Y23*%
%MOIN*%
G04 EasyPC Gerber Version 18.0.1 Build 3581 *
%ADD111R,0.02360X0.08660*%
%ADD113R,0.04500X0.05000*%
%ADD17R,0.04528X0.05512*%
%ADD115R,0.07000X0.11000*%
%ADD14R,0.06000X0.06000*%
%ADD11C,0.00787*%
%ADD10C,0.00800*%
%ADD13C,0.01181*%
%ADD81C,0.01575*%
%ADD22C,0.02500*%
%ADD116C,0.02953*%
%ADD117C,0.05118*%
%ADD114R,0.04800X0.04000*%
%ADD19R,0.05512X0.04528*%
%ADD83C,0.06496*%
%ADD112C,0.06500*%
%ADD71C,0.15000*%
X0Y0D02*
D02*
D10*
X2341Y299D02*
Y1699D01*
X491*
Y299*
X2341*
D02*
D11*
X729Y724D02*
Y720D01*
X904Y545*
Y564*
X1049*
Y474*
X1040*
X1048Y466*
X1127*
Y597*
X1165*
G75*
G02X1165Y666I36J35*
G01*
X1070*
Y792*
X1183*
Y790*
X1370*
Y792*
X1374*
Y816*
X1276*
G75*
G02X1257Y824J28*
G01*
X1232Y849*
G75*
G02X1229Y853I19J19*
G01*
G75*
G02X1221Y837I-27J3*
G01*
X1193Y809*
G75*
G02X1174Y801I-19J19*
G01*
X1058*
X1049Y792*
Y754*
X1007*
G75*
G02X1016Y748I-11J-25*
G01*
X1036Y728*
G75*
G02X1044Y706I-19J-19*
G01*
Y706*
X1054*
Y612*
X889*
Y661*
X864Y684*
X816*
Y724*
X729*
G36*
Y720*
X904Y545*
Y564*
X1049*
Y474*
X1040*
X1048Y466*
X1127*
Y597*
X1165*
G75*
G02X1165Y666I36J35*
G01*
X1070*
Y792*
X1183*
Y790*
X1370*
Y792*
X1374*
Y816*
X1276*
G75*
G02X1257Y824J28*
G01*
X1232Y849*
G75*
G02X1229Y853I19J19*
G01*
G75*
G02X1221Y837I-27J3*
G01*
X1193Y809*
G75*
G02X1174Y801I-19J19*
G01*
X1058*
X1049Y792*
Y754*
X1007*
G75*
G02X1016Y748I-11J-25*
G01*
X1036Y728*
G75*
G02X1044Y706I-19J-19*
G01*
Y706*
X1054*
Y612*
X889*
Y661*
X864Y684*
X816*
Y724*
X729*
G37*
X1232Y466D02*
X1329D01*
Y586*
X1271*
Y668*
X1236*
G75*
G02X1232Y592I-34J-37*
G01*
Y466*
G36*
X1329*
Y586*
X1271*
Y668*
X1236*
G75*
G02X1232Y592I-34J-37*
G01*
Y466*
G37*
X2333Y307D02*
Y1691D01*
X499*
Y307*
X2333*
X587Y486D02*
G75*
G02X772I93D01*
G01*
G75*
G02X587I-93*
G01*
Y1511D02*
G75*
G02X772I93D01*
G01*
G75*
G02X587I-93*
G01*
X692Y906D02*
Y961D01*
X728*
G75*
G02X730Y1062I14J50*
G01*
G75*
G02X741Y1162I11J49*
G01*
G75*
G02X752Y1062J-50*
G01*
G75*
G02X786Y1039I-11J-51*
G01*
X791*
G75*
G02X811Y1031J-28*
G01*
X831Y1011*
G75*
G02X839Y991I-19J-19*
G01*
Y863*
G75*
G02X831Y843I-28*
G01*
X829Y842*
X901*
Y766*
X818*
Y830*
X800Y813*
Y804*
X816*
Y764*
X903*
Y723*
X921Y706*
X951*
G75*
G02X947Y709I16J23*
G01*
X927Y729*
G75*
G02X919Y749I19J19*
G01*
Y754*
X904*
Y924*
X979*
Y945*
X955Y969*
X904*
Y1054*
X999*
Y1003*
X1026Y976*
G75*
G02X1034Y956I-19J-19*
G01*
Y924*
X1049*
Y891*
X1072*
Y995*
X1120*
Y997*
X1260*
X1232Y1024*
G75*
G02X1224Y1041I19J19*
G01*
X1070*
Y1167*
X1202*
X1132Y1237*
G75*
G02X1126Y1246I19J19*
G01*
X1120*
Y1248*
X1072*
Y1256*
G75*
G02X997Y1267I-33J38*
G01*
Y1246*
X999*
Y1162*
X979*
Y1144*
X999*
Y1059*
X904*
Y1144*
X924*
Y1162*
X904*
Y1246*
X906*
Y1324*
X997*
Y1321*
G75*
G02X1072Y1332I42J-27*
G01*
Y1370*
X1120*
Y1372*
X1165*
X1132Y1404*
G75*
G02X1125Y1417I19J19*
G01*
X1104*
Y1441*
X999*
Y1429*
X997*
Y1351*
X906*
Y1429*
X904*
Y1514*
X999*
Y1496*
X1104*
Y1581*
X1274*
Y1566*
G75*
G02X1291Y1558I-2J-27*
G01*
X1299Y1550*
Y1581*
X1394*
Y1566*
G75*
G02X1406Y1562I-2J-27*
G01*
Y1579*
X1497*
Y1501*
X1499*
Y1417*
X1429*
Y1372*
X1433*
Y1259*
X1457*
Y1271*
X1551*
Y1107*
X1531*
Y1056*
X1551*
Y961*
X1597*
Y1311*
G75*
G02X1629Y1344I32*
G01*
X2254*
G75*
G02X2286Y1311J-32*
G01*
Y686*
G75*
G02X2254Y654I-32*
G01*
X1629*
G75*
G02X1597Y686J32*
G01*
Y906*
X1551*
Y892*
X1457*
Y1056*
X1476*
Y1107*
X1457*
Y1204*
X1355*
G75*
G02X1358Y1201I-16J-22*
G01*
X1371Y1188*
G75*
G02X1379Y1169I-19J-19*
G01*
Y1167*
X1433*
Y1041*
X1429*
Y997*
X1433*
Y871*
X1429*
Y849*
G75*
G02Y838I-28J-6*
G01*
Y792*
X1433*
Y679*
X1434*
Y599*
X1438*
Y449*
X1419*
Y444*
G75*
G02Y433I-28J-6*
G01*
Y431*
X1434*
Y337*
X1269*
Y356*
X1254*
Y337*
X1089*
Y356*
X1079*
Y337*
X914*
Y431*
X919*
Y474*
X904*
Y486*
X896*
G75*
G02X877Y494J28*
G01*
X682Y689*
G75*
G02X674Y709I19J19*
G01*
Y876*
G75*
G02X682Y896I28*
G01*
X692Y906*
X1611Y486D02*
G75*
G02X1797I93D01*
G01*
G75*
G02X1611I-93*
G01*
Y1511D02*
G75*
G02X1797I93D01*
G01*
G75*
G02X1611I-93*
G01*
X499Y486D02*
G36*
Y307D01*
X2333*
Y486*
X1797*
G75*
G02X1611I-93*
G01*
X1438*
Y449*
X1419*
Y444*
G75*
G02Y433I-28J-6*
G01*
Y431*
X1434*
Y337*
X1269*
Y356*
X1254*
Y337*
X1089*
Y356*
X1079*
Y337*
X914*
Y431*
X919*
Y474*
X904*
Y486*
X896*
G75*
G02X895Y486J28*
G01*
X772*
G75*
G02X587I-93*
G01*
X499*
G37*
X587D02*
G36*
G75*
G02X772I93D01*
G01*
X895*
G75*
G02X877Y494I2J28*
G01*
X682Y689*
G75*
G02X674Y709I19J19*
G01*
Y876*
G75*
G02X682Y896I28*
G01*
X692Y906*
Y961*
X728*
G75*
G02X730Y1062I14J50*
G01*
G75*
G02X741Y1162I11J49*
G01*
G75*
G02X752Y1062J-50*
G01*
G75*
G02X786Y1039I-11J-51*
G01*
X791*
G75*
G02X811Y1031J-28*
G01*
X831Y1011*
G75*
G02X839Y991I-19J-19*
G01*
Y863*
G75*
G02X831Y843I-28*
G01*
X829Y842*
X901*
Y766*
X818*
Y830*
X800Y813*
Y804*
X816*
Y764*
X903*
Y723*
X921Y706*
X951*
G75*
G02X947Y709I16J23*
G01*
X927Y729*
G75*
G02X919Y749I19J19*
G01*
Y754*
X904*
Y924*
X979*
Y945*
X955Y969*
X904*
Y1054*
X999*
Y1003*
X1026Y976*
G75*
G02X1034Y956I-19J-19*
G01*
Y924*
X1049*
Y891*
X1072*
Y995*
X1120*
Y997*
X1260*
X1232Y1024*
G75*
G02X1224Y1041I19J19*
G01*
X1070*
Y1167*
X1202*
X1132Y1237*
G75*
G02X1126Y1246I19J19*
G01*
X1120*
Y1248*
X1072*
Y1256*
G75*
G02X997Y1267I-33J38*
G01*
Y1246*
X999*
Y1162*
X979*
Y1144*
X999*
Y1059*
X904*
Y1144*
X924*
Y1162*
X904*
Y1246*
X906*
Y1324*
X997*
Y1321*
G75*
G02X1072Y1332I42J-27*
G01*
Y1370*
X1120*
Y1372*
X1165*
X1132Y1404*
G75*
G02X1125Y1417I19J19*
G01*
X1104*
Y1441*
X999*
Y1429*
X997*
Y1351*
X906*
Y1429*
X904*
Y1511*
X772*
G75*
G02X587I-93*
G01*
X499*
Y486*
X587*
G37*
X1611D02*
G36*
G75*
G02X1797I93D01*
G01*
X2333*
Y1511*
X1797*
G75*
G02X1611I-93*
G01*
X1497*
Y1501*
X1499*
Y1417*
X1429*
Y1372*
X1433*
Y1259*
X1457*
Y1271*
X1551*
Y1107*
X1531*
Y1056*
X1551*
Y961*
X1597*
Y1311*
G75*
G02X1629Y1344I32*
G01*
X2254*
G75*
G02X2286Y1311J-32*
G01*
Y686*
G75*
G02X2254Y654I-32*
G01*
X1629*
G75*
G02X1597Y686J32*
G01*
Y906*
X1551*
Y892*
X1457*
Y1056*
X1476*
Y1107*
X1457*
Y1204*
X1355*
G75*
G02X1358Y1201I-16J-22*
G01*
X1371Y1188*
G75*
G02X1379Y1169I-19J-19*
G01*
Y1167*
X1433*
Y1041*
X1429*
Y997*
X1433*
Y871*
X1429*
Y849*
G75*
G02Y838I-28J-6*
G01*
Y792*
X1433*
Y679*
X1434*
Y599*
X1438*
Y486*
X1611*
G37*
X587Y1511D02*
G36*
G75*
G02X772I93D01*
G01*
X904*
Y1514*
X999*
Y1496*
X1104*
Y1581*
X1274*
Y1566*
G75*
G02X1291Y1558I-2J-27*
G01*
X1299Y1550*
Y1581*
X1394*
Y1566*
G75*
G02X1406Y1562I-2J-27*
G01*
Y1579*
X1497*
Y1511*
X1611*
G75*
G02X1797I93*
G01*
X2333*
Y1691*
X499*
Y1511*
X587*
G37*
D02*
D13*
X611Y486D02*
X585D01*
X611Y1511D02*
X585D01*
X680Y417D02*
Y392D01*
Y556D02*
Y581D01*
Y1442D02*
Y1417D01*
Y1581D02*
Y1606D01*
X723Y1093D02*
X705Y1075D01*
X723Y1130D02*
X705Y1148D01*
X749Y486D02*
X774D01*
X749Y1511D02*
X774D01*
X760Y1093D02*
X778Y1075D01*
X760Y1130D02*
X778Y1148D01*
X930Y1284D02*
X904D01*
X930Y1391D02*
X904D01*
X951Y1301D02*
Y1326D01*
Y1375D02*
Y1349D01*
X973Y1391D02*
X999D01*
X1039Y1267D02*
Y1242D01*
Y1321D02*
Y1346D01*
X1096Y934D02*
X1070D01*
X1101Y971D02*
Y997D01*
Y1271D02*
Y1246D01*
Y1346D02*
Y1372D01*
X1149Y493D02*
X1125Y469D01*
X1149Y555D02*
X1125Y579D01*
X1175Y631D02*
X1149D01*
X1210Y493D02*
X1234Y469D01*
X1210Y555D02*
X1234Y579D01*
X1228Y631D02*
X1254D01*
X1251Y692D02*
Y666D01*
Y766D02*
Y792D01*
X1295Y631D02*
X1269D01*
X1311Y610D02*
Y584D01*
X1451Y1556D02*
Y1581D01*
X1473Y1539D02*
X1499D01*
X1635Y486D02*
X1609D01*
X1635Y1511D02*
X1609D01*
X1704Y417D02*
Y392D01*
Y556D02*
Y581D01*
Y1442D02*
Y1417D01*
Y1581D02*
Y1606D01*
X1773Y486D02*
X1799D01*
X1773Y1511D02*
X1799D01*
D02*
D14*
X741Y911D03*
D02*
D17*
X931Y659D03*
X956Y384D03*
X1011Y659D03*
X1036Y384D03*
X1131D03*
X1211D03*
X1311D03*
Y631D03*
X1391Y384D03*
Y631D03*
D02*
D19*
X951Y1011D03*
Y1101D03*
Y1204D03*
Y1284D03*
Y1391D03*
Y1471D03*
X1151Y1459D03*
Y1539D03*
X1226Y1459D03*
Y1539D03*
X1346Y1459D03*
Y1539D03*
X1451Y1459D03*
Y1539D03*
X1504Y934D03*
Y1014D03*
Y1149D03*
Y1229D03*
D02*
D71*
X680Y486D03*
Y1511D03*
X1704Y486D03*
Y1511D03*
D02*
D22*
X2254Y1311D02*
Y686D01*
X1629*
Y1311*
X2254*
G36*
Y686*
X1629*
Y1311*
X2254*
G37*
D02*
D81*
X741Y911D02*
X736D01*
X701Y876*
Y709*
X896Y514*
X946*
Y384*
X956*
X772Y764D02*
Y824D01*
X811Y863*
Y991*
X791Y1011*
X741*
X931Y659D02*
X861Y724D01*
X859*
X946Y879D02*
Y799D01*
X951Y1101D02*
Y1204D01*
Y1471D02*
X944D01*
X941Y1469*
X1151*
Y1459*
X1006Y519D02*
Y469D01*
X1036Y439*
X1391*
X1006Y799D02*
X1016D01*
X1046Y829*
X1174*
X1201Y856*
Y934*
X1006Y879D02*
Y956D01*
X951Y1011*
X1006Y879D02*
Y864D01*
X1131*
X1151Y884*
Y934*
X1011Y659D02*
X1016Y709D01*
X996Y729*
X966*
X946Y749*
Y799*
X1036Y384D02*
X1131D01*
X1101Y934D02*
Y969D01*
X1039Y1031*
Y1294*
X1101Y1309D02*
Y1294D01*
X1039*
X1151Y1309D02*
Y1256D01*
X1251Y1156*
Y1044*
X1301Y994*
Y934*
X1201Y729D02*
Y631D01*
Y729D02*
X1351D01*
X1201Y1309D02*
Y1374D01*
X1151Y1424*
Y1459*
X1211Y384D02*
X1311D01*
X1226Y1459D02*
Y1449D01*
X1301Y1374*
Y1309*
X1226Y1539D02*
X1151D01*
X1251Y934D02*
Y869D01*
X1276Y844*
X1401*
X1251Y1309D02*
Y1231D01*
X1301Y1181*
X1339*
X1351Y1169*
Y934*
X1301Y729D02*
Y636D01*
X1311Y631*
X1301Y1309D02*
Y1256D01*
X1326Y1231*
X1509*
X1506Y1234*
X1504Y1229*
X1346Y1459D02*
Y1464D01*
X1309*
X1291Y1481*
Y1519*
X1271Y1539*
X1226*
X1351Y1309D02*
Y1459D01*
X1346*
X1391Y439D02*
Y384D01*
Y631D02*
Y439D01*
X1401Y729D02*
Y636D01*
X1391Y631*
X1401Y729D02*
Y844D01*
Y934*
Y1104D02*
Y934D01*
Y1309D02*
Y1459D01*
Y1529*
X1391Y1539*
X1346*
X1451Y1459D02*
X1401D01*
X1504Y934D02*
X1649D01*
X1654Y929*
Y874*
X1691*
Y879*
X1504Y1149D02*
Y1014D01*
D02*
D83*
X1039Y1294D03*
X1201Y631D03*
D02*
D111*
X1101Y729D03*
Y934D03*
Y1104D03*
Y1309D03*
X1151Y729D03*
Y934D03*
Y1104D03*
Y1309D03*
X1201Y729D03*
Y934D03*
Y1104D03*
Y1309D03*
X1251Y729D03*
Y934D03*
Y1104D03*
Y1309D03*
X1301Y729D03*
Y934D03*
Y1104D03*
Y1309D03*
X1351Y729D03*
Y934D03*
Y1104D03*
Y1309D03*
X1401Y729D03*
Y934D03*
Y1104D03*
Y1309D03*
D02*
D112*
X741Y1011D03*
Y1111D03*
D02*
D113*
X946Y519D03*
Y799D03*
Y879D03*
X1006Y519D03*
Y799D03*
Y879D03*
D02*
D114*
X772Y764D03*
X859Y724D03*
Y804D03*
D02*
D115*
X1179Y524D03*
X1383D03*
D02*
D116*
X680Y1511D02*
X886D01*
X741Y1111D02*
Y1234D01*
X801Y1294*
X944*
X949Y1289*
X951Y1284*
X859Y804D02*
Y812D01*
X866Y819*
Y1081*
X836Y1111*
X741*
X886Y1511D02*
Y1406D01*
X906Y1386*
X951Y1391*
Y1284*
X1039Y1294D02*
X951D01*
Y1284*
X1179Y524D02*
Y609D01*
X1201Y631*
X1311D02*
X1201D01*
X1451Y1539D02*
Y1619D01*
X1431Y1639*
X926*
X886Y1599*
Y1511*
X1704D02*
X1584D01*
X1531Y1564*
X1476*
X1451Y1539*
D02*
D117*
X586Y1104D02*
Y1111D01*
X741*
X680Y486D02*
X679D01*
X586Y579*
Y1104*
X680Y1511D02*
X654D01*
X586Y1444*
Y1104*
X0Y0D02*
M02*
