%FSLAX23Y23*%
%MOIN*%
G04 EasyPC Gerber Version 18.0.1 Build 3581 *
%ADD120R,0.03360X0.09660*%
%ADD110R,0.05500X0.06000*%
%ADD119R,0.06500X0.07000*%
%ADD123R,0.08000X0.12000*%
%ADD25R,0.07000X0.07000*%
%ADD10C,0.00800*%
%ADD122R,0.05800X0.05000*%
%ADD72R,0.06512X0.05528*%
%ADD118R,0.07000X0.06500*%
%ADD121C,0.07500*%
%ADD74C,0.16000*%
X0Y0D02*
D02*
D10*
X2341Y299D02*
Y1699D01*
X491*
Y299*
X2341*
D02*
D25*
X741Y911D03*
D02*
D72*
X951Y1011D03*
Y1101D03*
D02*
D74*
X680Y486D03*
Y1511D03*
X1704Y486D03*
Y1511D03*
D02*
D110*
X946Y519D03*
Y799D03*
Y879D03*
X1006Y519D03*
Y799D03*
Y879D03*
D02*
D118*
X926Y659D03*
X951Y384D03*
X1016Y659D03*
X1041Y384D03*
X1126D03*
X1216D03*
X1306D03*
Y631D03*
X1396Y384D03*
Y631D03*
D02*
D119*
X951Y1199D03*
Y1289D03*
Y1386D03*
Y1476D03*
X1151Y1474D03*
Y1564D03*
X1226Y1474D03*
Y1564D03*
X1351Y1474D03*
Y1564D03*
X1451Y1474D03*
Y1564D03*
X1504Y929D03*
Y1019D03*
Y1144D03*
Y1234D03*
D02*
D120*
X1101Y729D03*
Y934D03*
Y1104D03*
Y1309D03*
X1151Y729D03*
Y934D03*
Y1104D03*
Y1309D03*
X1201Y729D03*
Y934D03*
Y1104D03*
Y1309D03*
X1251Y729D03*
Y934D03*
Y1104D03*
Y1309D03*
X1301Y729D03*
Y934D03*
Y1104D03*
Y1309D03*
X1351Y729D03*
Y934D03*
Y1104D03*
Y1309D03*
X1401Y729D03*
Y934D03*
Y1104D03*
Y1309D03*
D02*
D121*
X741Y1011D03*
Y1111D03*
D02*
D122*
X772Y764D03*
X859Y724D03*
Y804D03*
D02*
D123*
X1179Y524D03*
X1383D03*
X0Y0D02*
M02*
